<svg width="224" height="490" viewBox="0 0 224 490" fill="none" xmlns="http://www.w3.org/2000/svg">
<path d="M222.167 475.788C222.167 481.356 172.466 485.871 111.156 485.871C49.847 485.871 0.145508 481.356 0.145508 475.788C0.145508 470.219 49.847 465.704 111.156 465.704C172.466 465.704 222.167 470.219 222.167 475.788Z" fill="#D4C7E8"/>
<path d="M90.4571 114.796C97.6852 91.6093 123.741 76.0906 147.486 80.8306C164.215 84.1706 178.259 96.0706 187.902 110.188C197.546 124.305 203.383 140.628 209.12 156.745C217.291 179.709 225.587 203.58 223.357 227.86C220.336 260.737 196.9 290.195 166.568 302.984C148.71 310.513 128.179 312.636 109.82 306.435C91.4642 300.232 75.7802 285.061 71.224 266.169C68.1056 253.231 70.1664 239.669 72.2392 226.519C76.8844 197.073 81.5282 167.627 86.172 138.179" fill="#CCC8E9"/>
<path d="M96.6901 425.625L95.283 435.404L90.2472 470.287C77.0479 472.643 63.2586 472.908 49.6845 471.737L44.4454 435.404L43.041 425.625H96.6901Z" fill="#B1AEDE"/>
<path d="M41.8524 384.17C39.7079 381.466 37.3176 378.936 35.5531 375.968C33.7886 373.002 32.6791 369.456 33.4098 366.078C33.6517 364.96 34.1128 363.852 34.9286 363.05C37.5182 360.504 41.8259 362.168 44.9869 363.948C39.0449 355.869 34.5911 346.69 31.9177 337.016C31.6586 336.073 31.4141 335.084 31.632 334.132C32.0599 332.254 34.2018 331.194 36.1178 331.325C38.0311 331.456 39.7584 332.47 41.406 333.46C38.051 326.016 34.6164 317.92 36.3277 309.932C36.7649 307.889 37.6418 305.785 39.401 304.666C42.1541 302.914 46.4152 304.837 46.9374 308.065C44.9869 303.55 44.4501 298.434 45.4187 293.61C46.3714 288.854 50.0838 283.704 54.8499 284.517C56.6888 284.829 58.2819 286.014 59.5083 287.424C61.423 289.625 62.5803 292.381 63.4692 295.162C66.3033 304.03 66.674 313.678 64.5269 322.738C66.5943 320.086 68.8146 317.32 71.9437 316.101C75.0701 314.884 79.3379 315.94 80.4314 319.122C80.9204 320.545 80.7052 322.105 80.4381 323.586C78.3853 334.948 73.5248 345.788 66.4109 354.864C70.0928 352.112 75.1697 349.532 78.9898 352.085C81.5223 353.777 82.3713 357.261 81.7601 360.252C81.1503 363.241 79.3579 365.838 77.499 368.254C74.722 371.864 71.7059 375.288 68.4718 378.49C72.5004 377.866 77.2878 377.498 79.9784 380.572C82.5335 383.49 81.7907 387.98 80.5922 391.675C79.6927 394.451 78.6018 397.204 76.8891 399.563C75.1353 401.978 72.7954 403.889 70.6695 405.981C65.1421 411.418 60.9619 418.225 58.6048 425.624C58.7948 425.029 54.5828 417.775 54.3184 416.024C53.763 412.346 53.5358 408.8 52.522 405.166C50.3974 397.552 46.7607 390.358 41.8524 384.17Z" fill="#8282B8"/>
<path d="M110.792 392.539C113.497 390.401 116.402 388.487 118.797 386.005C121.193 383.523 123.082 380.327 123.142 376.872C123.161 375.725 122.967 374.543 122.356 373.573C120.417 370.499 115.845 371.129 112.36 372.133C119.989 365.637 126.42 357.728 131.233 348.924C131.7 348.068 132.164 347.16 132.171 346.184C132.181 344.257 130.338 342.733 128.445 342.42C126.552 342.107 124.638 342.697 122.81 343.281C127.775 336.805 132.968 329.717 133.126 321.548C133.167 319.459 132.793 317.209 131.338 315.715C129.059 313.377 124.471 314.268 123.225 317.291C126.153 313.345 127.847 308.488 128.005 303.571C128.163 298.723 125.727 292.855 120.902 292.549C119.041 292.431 117.219 293.217 115.703 294.307C113.338 296.009 111.581 298.427 110.081 300.929C105.296 308.908 102.732 318.215 102.753 327.527C101.345 324.471 99.8155 321.267 97.0491 319.361C94.2841 317.457 89.8874 317.503 88.0976 320.351C87.295 321.623 87.1489 323.189 87.0705 324.693C86.4739 336.225 88.7301 347.895 93.5812 358.364C90.6261 354.839 86.2733 351.16 81.9709 352.767C79.1209 353.832 77.4972 357.027 77.4095 360.077C77.3205 363.129 78.4738 366.069 79.7294 368.849C81.6069 373.001 83.7634 377.025 86.1776 380.888C82.4001 379.353 77.8241 377.895 74.5023 380.268C71.3479 382.52 71.0476 387.061 71.3692 390.933C71.611 393.843 72.0442 396.773 73.1722 399.463C74.3282 402.219 76.1685 404.617 77.7603 407.143C81.8992 413.705 84.4131 421.292 85.0163 429.035C84.9685 428.414 90.7244 422.321 91.3808 420.678C92.7627 417.225 93.7938 413.827 95.6115 410.521C99.4182 403.599 104.601 397.435 110.792 392.539Z" fill="#9D9BC9"/>
<path d="M102.2 435.398V414.33H37.5391V435.398H102.2Z" fill="#CECAEA"/>
<path d="M43.6778 315.74C44.2505 314.269 45.2417 312.66 46.8095 312.555C48.3442 312.452 49.5414 313.861 50.2323 315.24C51.6474 318.067 52.0885 321.371 51.464 324.471C50.8409 327.571 49.1561 330.445 46.7578 332.497C45.5965 333.493 43.9103 334.161 43.2593 332.487C42.6414 330.903 42.3743 328.876 42.191 327.185C41.7711 323.324 42.2694 319.36 43.6778 315.74Z" fill="#CECAEA"/>
<path d="M26.8169 330.747C25.6012 329.747 24.3815 328.303 24.7668 326.773C25.1428 325.277 26.8489 324.571 28.3689 324.337C31.4834 323.86 34.752 324.461 37.4985 326.015C40.2423 327.568 42.4466 330.064 43.6518 332.985C44.2364 334.401 44.348 336.217 42.5582 336.323C40.8668 336.421 38.8644 336.051 37.2048 335.703C33.4154 334.909 29.8132 333.211 26.8169 330.747Z" fill="#CECAEA"/>
<path d="M35.8317 351.475C34.507 352.327 32.7624 353.044 31.431 352.204C30.1302 351.383 29.9867 349.536 30.2365 348.015C30.7467 344.893 32.3252 341.959 34.6451 339.819C36.965 337.68 40.0117 336.348 43.1541 336.1C44.6768 335.98 46.432 336.435 45.9789 338.175C45.5511 339.82 44.5811 341.616 43.7387 343.092C41.8161 346.463 39.0923 349.377 35.8317 351.475Z" fill="#CECAEA"/>
<path d="M58.26 349.279C58.6573 350.804 58.7995 352.692 57.5917 353.703C56.4105 354.691 54.6154 354.256 53.2495 353.549C50.4513 352.097 48.1566 349.684 46.8465 346.808C45.5351 343.932 45.2149 340.613 45.951 337.538C46.3084 336.048 47.281 334.513 48.7904 335.482C50.2174 336.4 51.6205 337.881 52.7592 339.141C55.3595 342.019 57.2795 345.518 58.26 349.279Z" fill="#CECAEA"/>
<path d="M63.1092 327.192C64.6798 327.285 66.512 327.733 67.0967 329.197C67.6693 330.629 66.7021 332.208 65.6098 333.295C63.3683 335.517 60.3734 336.96 57.2416 337.323C54.1112 337.685 50.8665 336.964 48.1798 335.312C46.8777 334.511 45.723 333.108 47.1089 331.967C48.419 330.889 50.2566 330.009 51.8032 329.309C55.3336 327.717 59.244 326.965 63.1092 327.192Z" fill="#CECAEA"/>
<path d="M49.3878 334.887C49.3878 337.019 47.6644 338.748 45.5384 338.748C43.4138 338.748 41.6904 337.019 41.6904 334.887C41.6904 332.753 43.4138 331.024 45.5384 331.024C47.6644 331.024 49.3878 332.753 49.3878 334.887Z" fill="#E8DEF1"/>
<path d="M96.9608 340.903C97.5322 339.432 98.5234 337.823 100.093 337.717C101.626 337.613 102.824 339.023 103.514 340.403C104.93 343.228 105.372 346.533 104.747 349.632C104.123 352.733 102.439 355.607 100.042 357.66C98.8795 358.655 97.192 359.323 96.5409 357.648C95.9231 356.065 95.656 354.039 95.4726 352.348C95.0541 348.487 95.5511 344.521 96.9608 340.903Z" fill="#CECAEA"/>
<path d="M80.1002 355.909C78.8844 354.908 77.6647 353.465 78.05 351.936C78.426 350.44 80.1334 349.733 81.6521 349.5C84.7679 349.021 88.0365 349.623 90.7816 351.176C93.5267 352.729 95.731 355.225 96.9348 358.147C97.5207 359.564 97.6324 361.38 95.8426 361.484C94.1512 361.584 92.1488 361.213 90.4893 360.865C86.6998 360.073 83.0964 358.373 80.1002 355.909Z" fill="#CECAEA"/>
<path d="M89.1142 376.637C87.7908 377.489 86.0463 378.207 84.7149 377.367C83.4128 376.545 83.2706 374.697 83.5191 373.176C84.0293 370.056 85.6091 367.121 87.929 364.981C90.249 362.841 93.2957 361.51 96.438 361.262C97.9607 361.142 99.7159 361.597 99.2628 363.337C98.835 364.981 97.8637 366.779 97.0227 368.255C95.0987 371.627 92.3749 374.54 89.1142 376.637Z" fill="#CECAEA"/>
<path d="M111.544 374.441C111.942 375.967 112.083 377.853 110.875 378.865C109.696 379.853 107.901 379.419 106.535 378.711C103.735 377.259 101.442 374.847 100.13 371.969C98.8203 369.095 98.5001 365.776 99.2362 362.7C99.5923 361.21 100.566 359.676 102.074 360.645C103.501 361.562 104.904 363.044 106.044 364.304C108.645 367.18 110.565 370.681 111.544 374.441Z" fill="#CECAEA"/>
<path d="M116.396 352.355C117.963 352.447 119.796 352.896 120.382 354.36C120.953 355.793 119.987 357.371 118.894 358.456C116.653 360.68 113.657 362.123 110.527 362.484C107.395 362.848 104.152 362.128 101.464 360.473C100.163 359.673 99.0082 358.269 100.394 357.129C101.704 356.051 103.542 355.171 105.088 354.472C108.617 352.879 112.528 352.129 116.396 352.355Z" fill="#CECAEA"/>
<path d="M102.671 360.049C102.671 362.182 100.949 363.909 98.8235 363.909C96.6976 363.909 94.9756 362.182 94.9756 360.049C94.9756 357.916 96.6976 356.186 98.8235 356.186C100.949 356.186 102.671 357.916 102.671 360.049Z" fill="#E8DEF1"/>
<path d="M186.981 442.712H168.843C168.843 442.712 151.255 358.964 146.721 349.124C144.676 344.693 140.434 325.096 136.397 304.897C134.182 293.849 132.035 282.629 130.336 273.596C127.312 273.665 124.323 273.684 121.678 273.7C121.524 283.265 121.334 295.176 121.128 306.033C120.82 321.356 120.494 334.576 120.202 336.144C120.202 336.144 126.642 355.225 128.582 365.256C129.992 372.58 122.022 451.709 122.022 451.709H103.524C103.524 451.709 97.8729 351.088 95.4334 344.004C94.3159 340.764 91.5695 324.321 89.1818 305.552C86.3477 283.456 83.9946 258.12 85.318 247.278C85.7285 243.934 86.2959 240.073 86.9829 235.97C88.0139 229.681 89.3014 222.82 90.5557 216.356H161.697C162.007 217.288 162.316 218.236 162.609 219.201C164.206 224.458 165.495 229.784 166.403 235.178C166.902 237.988 167.279 240.832 167.571 243.692C167.607 244.089 167.64 244.504 167.658 244.916C168.036 251.346 167.985 278.216 167.881 300.312C167.777 317.272 167.658 331.421 167.658 331.421C167.658 331.421 182.154 359.448 183.012 370.753C183.459 376.63 186.981 442.712 186.981 442.712Z" fill="#F68672"/>
<path d="M186.982 442.712H183.116C181.398 423.788 177.398 380.785 175.903 371.444C173.979 359.379 160.651 330.077 160.651 330.077C160.651 330.077 161.08 256.396 160.651 251.656C160.324 247.933 156.785 225.683 155.292 216.356H161.698C162.007 217.288 162.317 218.236 162.609 219.201C164.206 224.459 165.495 229.784 166.404 235.179C166.902 237.988 167.28 240.832 167.572 243.692C167.608 244.089 167.641 244.504 167.658 244.916C168.037 251.347 167.985 278.216 167.882 300.312C167.778 317.272 167.658 331.421 167.658 331.421C167.658 331.421 182.155 359.448 183.013 370.753C183.459 376.631 186.982 442.712 186.982 442.712Z" fill="#F36269"/>
<path d="M121.129 306.033C120.82 321.356 120.495 334.576 120.203 336.144C120.203 336.144 126.643 355.225 128.583 365.256C129.992 372.58 122.023 451.709 122.023 451.709H105.963L117.008 439.128C117.008 439.128 126.421 373.685 123.414 367.6C120.426 361.532 113.142 334.041 113.142 334.041L116.424 266.548L138.1 265.444L130.337 273.596C127.312 273.665 124.324 273.684 121.679 273.7C121.525 283.265 121.335 295.176 121.129 306.033Z" fill="#F36269"/>
<path d="M65.2373 474.064C65.418 472.94 65.9508 471.629 67.3765 470.992C71.5407 469.13 86.8181 463.368 90.961 460.073C94.1791 457.515 97.0212 451.939 98.1307 449.573L126.517 451.066C128.141 458.482 129.177 472.766 129.38 475.756L65.2373 474.064Z" fill="#363950"/>
<path d="M126.516 451.066L129.38 427.236H98.5325L98.1299 449.573L126.516 451.066Z" fill="#FDE9E0"/>
<path d="M65.0439 480.539L129.188 482.232L129.38 475.756L65.2366 474.064L65.0439 480.539Z" fill="#FCDACE"/>
<path d="M96.3087 462.028L96.4323 462.257C96.7299 462.832 96.9067 463.709 96.152 464.032C95.768 464.196 95.3282 464.132 94.9202 464.041C93.5184 463.729 92.2349 463.085 91.0124 462.344C89.6983 461.547 88.2978 460.685 87.4647 459.344C86.6024 457.959 87.8767 456.718 89.3927 457.076C92.017 457.693 94.9521 459.623 96.3087 462.028Z" fill="#FCDACE"/>
<path d="M91.3874 465.371L91.5109 465.599C91.8085 466.175 91.984 467.052 91.2306 467.373C90.8453 467.537 90.4055 467.475 89.9976 467.384C88.5958 467.071 87.3135 466.427 86.0911 465.685C84.777 464.888 83.3766 464.025 82.5421 462.685C81.6811 461.299 82.9554 460.06 84.4714 460.417C87.0956 461.036 90.0308 462.964 91.3874 465.371Z" fill="#FCDACE"/>
<path d="M85.3832 467.501L85.5067 467.73C85.803 468.304 85.9797 469.183 85.2263 469.504C84.841 469.668 84.3999 469.606 83.9933 469.515C82.5916 469.2 81.308 468.557 80.0856 467.816C78.7715 467.019 77.371 466.156 76.5379 464.816C75.6756 463.43 76.9498 462.19 78.4672 462.548C81.0901 463.166 84.0252 465.095 85.3832 467.501Z" fill="#FCDACE"/>
<path d="M200.52 478.98C200.52 478.98 186.6 489.028 182.804 489.352C179.008 489.672 159.083 484.488 159.083 481.894C159.083 480.985 159.512 477.768 160.121 473.89C161.249 466.696 163.003 457.228 163.825 455.965C165.087 454.021 163.825 442.354 163.825 442.354C163.825 442.354 184.389 437.49 187.234 438.465C189.433 439.215 196.155 462.945 199.108 473.73C199.978 476.92 200.52 478.98 200.52 478.98Z" fill="#363950"/>
<path d="M189.578 442.712L164.347 449.573L159.083 427.236L189.578 421.851V442.712Z" fill="#FDE9E0"/>
<path d="M200.52 478.98C200.52 478.98 186.6 489.028 182.804 489.352C179.008 489.672 159.083 484.488 159.083 481.894C159.083 480.985 159.512 477.768 160.121 473.89C166.605 476.496 180.492 481.652 185.074 479.965C188.182 478.82 194.096 476.099 199.108 473.73C199.978 476.92 200.52 478.98 200.52 478.98Z" fill="#FCDACE"/>
<path d="M182.764 459.28L182.996 459.387C183.57 459.663 184.228 460.253 183.815 460.976C183.605 461.345 183.217 461.566 182.837 461.744C181.533 462.36 180.13 462.637 178.721 462.799C177.202 462.973 175.578 463.149 174.125 462.593C172.62 462.018 172.91 460.242 174.331 459.593C176.789 458.468 180.266 458.197 182.764 459.28Z" fill="#FCDACE"/>
<path d="M182.764 464.899L182.996 465.004C183.57 465.28 184.228 465.872 183.815 466.593C183.605 466.963 183.217 467.184 182.837 467.361C181.533 467.977 180.13 468.254 178.721 468.416C177.202 468.59 175.578 468.766 174.125 468.211C172.62 467.636 172.91 465.86 174.331 465.211C176.789 464.085 180.266 463.815 182.764 464.899Z" fill="#FCDACE"/>
<path d="M183.298 470.04L183.532 470.147C184.108 470.423 184.764 471.015 184.351 471.737C184.14 472.105 183.752 472.327 183.373 472.505C182.069 473.12 180.668 473.399 179.255 473.56C177.738 473.735 176.113 473.909 174.659 473.353C173.156 472.78 173.445 471.004 174.865 470.352C177.325 469.229 180.8 468.957 183.298 470.04Z" fill="#FCDACE"/>
<path d="M82.3604 313.951H124.471L127.156 284.403L131.972 311.591H171.17C171.17 311.591 170.685 258.612 171.133 251.121C171.594 243.631 167.127 223.571 167.127 223.571L87.1876 216.355C87.1876 216.355 85.447 225.643 83.7303 235.019C82.2488 243.132 80.7806 251.308 80.4949 253.619C79.8598 258.612 82.3604 313.951 82.3604 313.951Z" fill="#353638"/>
<path d="M83.7314 235.019C103.286 237.265 154.737 243.044 159.08 242.383L160.734 254.867L159.34 311.591H171.171C171.171 311.591 170.686 258.612 171.134 251.121C171.595 243.631 167.128 223.571 167.128 223.571L87.1887 216.355C87.1887 216.355 85.4481 225.643 83.7314 235.019Z" fill="#1D1F20"/>
<path d="M115.005 313.951H124.472L127.157 284.403L124.744 261.932L115.005 313.951Z" fill="#1D1F20"/>
<path d="M99.3254 109.432C99.3254 109.432 92.1915 112.917 90.9479 114.321C89.7042 115.724 69.832 157.669 69.832 157.669L97.9076 164.395L103.907 119.989L99.3254 109.432Z" fill="#F03F38"/>
<path d="M80.1376 171.908L72.0072 180.303L71.9235 180.389L68.5659 177.057C68.4144 176.92 68.3187 176.821 68.2775 176.772L68.2337 176.737L64.9783 176.22C62.6943 175.549 46.5173 160.085 47.1976 158.748C47.3783 158.396 47.6175 158.017 47.862 157.667C48.2433 157.111 48.6353 156.623 48.8997 156.303C49.095 156.059 49.2278 155.931 49.2278 155.931C49.2278 155.931 49.3448 155.096 49.6225 154.179C49.7687 153.623 49.964 153.027 50.2098 152.545C50.4782 152.031 50.7958 151.644 51.1771 151.571C51.5598 151.484 52.846 152.079 54.4909 152.948C58.5488 155.089 64.7658 158.903 64.7405 158.361C64.6953 157.608 53.4744 146.02 53.4744 146.02C53.4744 146.02 53.4944 145.516 53.7681 144.911C53.9368 144.556 54.2052 144.159 54.6185 143.805C55.708 142.869 73.5751 156.827 74.1119 157.231C73.3944 153.591 73.9658 149.712 75.6984 146.411L75.7409 146.329C75.911 146.028 76.1408 145.752 76.4664 145.745C76.6231 145.74 76.764 145.811 76.9022 145.892C78.0436 146.56 78.6667 147.883 78.8899 149.185C79.1278 150.489 79.0162 151.835 79.0946 153.143C79.246 155.681 80.3236 158.017 81.4118 160.303C83.2348 164.185 79.1703 170.796 79.1703 170.796C79.1703 170.796 79.5875 171.265 80.1376 171.908Z" fill="#F36269"/>
<path d="M49.6172 154.172C49.9454 154.432 50.2842 154.693 50.6336 154.947C52.6772 156.436 54.6982 157.543 56.1983 158.257C57.6054 158.928 58.5541 159.275 58.6684 159.313C58.582 159.232 57.8432 158.543 56.6633 157.539C55.4024 156.463 53.6525 155.025 51.6408 153.561C51.1545 153.209 50.6775 152.873 50.2138 152.549C49.9667 153.028 49.766 153.616 49.6172 154.172Z" fill="#D03B58"/>
<path d="M47.8623 157.661C51.0699 160.095 54.0542 161.488 54.2416 161.575C54.1127 161.408 52.0345 158.839 48.8974 156.301C48.633 156.625 48.2397 157.116 47.8623 157.661Z" fill="#D03B58"/>
<path d="M66.3037 174.553C66.3037 174.553 75.5966 196.815 78.3577 197.647C81.1174 198.479 93.978 194.111 93.978 194.111L99.326 152.549L90.033 145.119L66.3037 174.553Z" fill="#F36269"/>
<path d="M142.002 104.039C142.002 104.039 161.563 110.453 164.051 112.96C166.539 115.465 157.767 167.489 157.767 167.489L169.231 234.157C169.231 234.157 94.9827 232.332 84.9403 228.408L91.6224 173.275C91.6224 173.275 86.6889 150.2 84.9403 143.444C83.1904 136.687 99.3262 109.432 99.3262 109.432L108.315 106.124L142.002 104.039Z" fill="#F03F38"/>
<path d="M102.825 117.504C103.137 116.928 103.927 117.435 103.679 118.005C100.454 125.468 97.0621 132.907 95.2218 140.865C93.0959 150.063 94.3993 157.591 96.6701 166.481C96.8999 167.38 95.7307 167.811 95.2311 167.091C84.9562 152.273 95.4609 131.057 102.825 117.504Z" fill="#ED2822"/>
<path d="M86.4096 167.151L68.9557 174.147C67.6842 174.647 66.2505 174.033 65.7523 172.757L55.496 146.921L54.8994 145.419L53.0312 140.732C52.5157 139.472 53.1442 138.035 54.3998 137.517L71.8709 130.537C73.1265 130.036 74.5589 130.651 75.0585 131.911L76.8947 136.532L77.49 138.019L87.7941 163.951C88.2937 165.212 87.6825 166.649 86.4096 167.151Z" fill="#353638"/>
<path d="M77.4909 138.019L55.497 146.921L54.9004 145.419L76.8957 136.532L77.4909 138.019Z" fill="#5C5F61"/>
<path d="M59.2103 140.889C59.2103 141.952 58.3532 142.813 57.2942 142.813C56.2353 142.813 55.377 141.952 55.377 140.889C55.377 139.827 56.2353 138.965 57.2942 138.965C58.3532 138.965 59.2103 139.827 59.2103 140.889Z" fill="#5C5F61"/>
<path d="M135.184 177.133L96.0832 168.1L91.6334 178.92L91.5869 179.031C99.5577 183.468 112.964 190.345 128.351 196.161L135.184 177.133Z" fill="#F68672"/>
<path d="M96.0845 168.1L91.6347 178.92L91.5881 179.031L87.2393 177.185C87.048 177.115 86.9217 177.057 86.8659 177.028L86.8114 177.012L83.5986 177.741C81.2282 177.969 60.4924 169.621 60.6306 168.127C60.6678 167.732 60.7502 167.292 60.8485 166.875C60.996 166.217 61.1807 165.617 61.3082 165.221C61.3999 164.923 61.4757 164.755 61.4757 164.755C61.4757 164.755 61.275 163.935 61.194 162.98C61.1262 162.409 61.0864 161.784 61.1382 161.245C61.1966 160.667 61.3494 160.189 61.675 159.98C61.9992 159.757 63.4156 159.831 65.2625 160.027C69.8226 160.505 77.0043 161.736 76.781 161.244C76.4622 160.56 61.76 153.971 61.76 153.971C61.76 153.971 61.5913 153.495 61.6231 152.831C61.6484 152.439 61.7507 151.969 62.0058 151.488C62.6701 150.213 84.4211 156.532 85.0668 156.708C83.0592 153.593 82.1556 149.777 82.545 146.069L82.5556 145.977C82.6008 145.633 82.7123 145.292 83.014 145.164C83.1575 145.101 83.3129 145.115 83.4724 145.14C84.7798 145.335 85.8454 146.332 86.535 147.457C87.2353 148.581 87.6299 149.872 88.1866 151.057C89.2642 153.359 91.1284 155.128 92.9833 156.847C96.1084 159.775 94.7757 167.427 94.7757 167.427C94.7757 167.427 95.3377 167.707 96.0845 168.1Z" fill="#F68672"/>
<path d="M61.1871 162.976C61.5897 163.096 61.9989 163.212 62.4188 163.319C64.8663 163.941 67.1517 164.216 68.8085 164.324C70.3631 164.421 71.3729 164.392 71.4938 164.385C71.3836 164.341 70.4415 163.976 68.9759 163.481C67.4067 162.953 65.2503 162.268 62.8414 161.657C62.2594 161.509 61.6934 161.376 61.1433 161.248C61.0902 161.783 61.1207 162.405 61.1871 162.976Z" fill="#D03B58"/>
<path d="M60.8457 166.871C64.7215 167.937 68.0088 168.121 68.2161 168.132C68.034 168.025 65.1547 166.412 61.3041 165.221C61.1779 165.621 60.9932 166.223 60.8457 166.871Z" fill="#D03B58"/>
<path d="M129.561 192.789C114.578 187.741 99.2019 181.867 91.6336 178.92C89.4572 178.068 87.9398 177.456 87.2383 177.185L91.5871 179.031C99.558 183.468 112.965 190.345 128.351 196.161L129.561 192.789Z" fill="#F9AA7F"/>
<path d="M164.051 112.96C164.051 112.96 170.996 114.841 174.728 125.452C178.46 136.062 186.999 202.395 176.49 208.675C163.635 216.355 120.696 197.883 120.696 197.883L125.252 171.356L150.499 175.908L155.292 126.7L164.051 112.96Z" fill="#F03F38"/>
<path d="M120.508 196.161C119.721 192.116 120.401 187.62 120.974 183.6C121.58 179.348 122.022 174.289 124.843 170.916L124.977 170.8C125.251 170.448 125.689 170.223 126.254 170.351C133.343 171.941 140.427 173.676 147.448 175.565C144.512 156.311 149.617 136.28 162.649 121.552C163.211 120.916 164.352 121.771 163.839 122.473C152.266 138.311 146.946 157.443 150.277 176.985C150.445 177.972 149.708 178.815 148.683 178.584C141.036 176.872 133.407 174.949 125.848 172.885C125.739 176.628 124.219 180.468 123.679 184.155C123.109 188.055 123.338 192.093 122.692 195.957C128.545 196.993 134.268 200.601 139.944 202.356C146.243 204.304 153.709 204.533 159.571 207.409C160.213 207.725 160.076 208.843 159.367 208.979C152.897 210.224 145.244 207.388 139.093 205.451C133.745 203.767 126.254 201.78 121.832 197.796C121.386 197.897 120.856 197.685 120.72 197.179C120.662 196.953 120.626 196.719 120.577 196.489L120.508 196.161Z" fill="#ED2822"/>
<path d="M109.926 116.927C114.352 123.697 119.368 128.848 128.423 126.421C135.7 124.472 140.575 118.739 143.82 112.2C144.143 111.548 145.291 112.013 145.01 112.704C141.651 120.996 135.206 128.139 125.838 129.055C118.792 129.744 109.085 125.283 108.913 117.203C108.901 116.637 109.643 116.492 109.926 116.927Z" fill="#ED2822"/>
<path d="M88.2589 57.7292C89.104 62.5852 90.6586 67.4412 90.5841 72.3732C90.4858 78.2399 88.0836 84.1826 89.7139 89.8119C91.505 95.9412 97.8243 99.8612 104.144 100.76C110.451 101.647 118.487 98.1265 124.818 98.7999C133.701 99.7612 142.869 97.7266 150.533 93.1452C150.832 92.9706 151.129 92.7825 151.428 92.5959C154.226 90.8239 157.001 88.4385 157.623 85.1679C158.582 80.2745 154.476 75.9932 152.934 71.2492C150.308 63.2226 155.21 54.3092 153.182 46.1079C151.689 40.0532 146.141 35.2346 139.957 34.6105C135.542 28.0319 126.91 24.2865 119.009 24.6745C111.097 25.0612 103.633 28.8066 97.5997 33.9492C92.9599 37.9186 88.8914 43.0372 87.9347 49.0919C87.4737 51.9745 87.7354 54.8465 88.2589 57.7292Z" fill="#121414"/>
<path d="M108.313 106.124C108.812 110.879 111.051 117.371 118.875 121.34C130.642 127.32 139.836 108.869 142 104.039C141.454 103.801 140.956 103.601 140.545 103.464C137.112 102.303 134.052 101.655 134.052 101.655L118.913 101.904C118.913 101.904 114.572 103.152 110.329 105.112L110.167 105.187L109.968 105.275L109.731 105.387C109.246 105.624 108.773 105.861 108.313 106.124Z" fill="#F68672"/>
<path d="M120.713 116.019L134.052 101.652C133.992 99.3879 133.786 98.5399 133.491 92.9413C133.171 86.7146 132.847 80.8786 132.847 80.8786L115.443 88.1199C117.471 92.4826 118.434 97.4773 118.808 102.245C119.59 112.296 120.713 116.019 120.713 116.019Z" fill="#F68672"/>
<path d="M115.443 88.1199C117.471 92.4825 118.434 97.4772 118.808 102.245C119.364 102.469 119.908 102.675 120.419 102.843C122.464 103.52 128.904 97.5906 133.491 92.9412C133.171 86.7146 132.847 80.8786 132.847 80.8786L115.443 88.1199Z" fill="#F36269"/>
<path d="M96.7212 67.5374C97.1012 69.1574 97.5836 70.8574 98.1762 72.6334C98.1762 72.6334 97.5344 81.4508 98.4884 83.4067C99.4477 85.3694 105.549 97.5681 111.737 96.7054C116.9 95.9867 129.429 88.1707 133.752 83.5667C134.618 82.6507 135.155 81.8628 135.244 81.2828C135.79 77.7788 137.612 62.3374 137.786 61.0454C138.255 57.5428 139.281 31.0614 107.528 38.9494C101.809 40.3748 97.3524 44.9121 96.1486 50.7001C95.2783 54.8787 95.0616 60.4721 96.7212 67.5374Z" fill="#F68672"/>
<path d="M98.1757 72.6334C98.1757 72.6334 97.5339 81.4508 98.4879 83.4067C99.4473 85.3694 105.549 97.5681 111.736 96.7054C116.9 95.9867 129.428 88.1707 133.752 83.5667C128.426 87.4081 114.22 97.2241 109.983 95.8227C104.733 94.0881 98.642 82.5948 98.7377 81.4441C98.832 80.2908 99.0486 72.7748 99.0486 72.7748C99.0486 72.7748 97.9577 70.4187 96.7207 67.5374C97.1007 69.1574 97.5831 70.8574 98.1757 72.6334Z" fill="#F9AA7F"/>
<path d="M104.836 70.112C104.111 68.4293 102.212 67.34 100.399 67.568C98.5836 67.7946 97.0104 69.3199 96.7207 71.1306C97.7531 70.1293 99.1908 69.5906 100.619 69.4266C102.046 69.2639 103.606 69.3706 104.836 70.112Z" fill="#121414"/>
<path d="M124.466 69.0319C123.52 67.0786 121.04 65.8159 118.674 66.0799C116.307 66.3439 114.253 68.1119 113.876 70.2119C115.225 69.0519 117.099 68.4266 118.961 68.2372C120.824 68.0466 122.859 68.1719 124.466 69.0319Z" fill="#121414"/>
<path d="M133.812 80.8625C137.809 80.4799 140.683 78.0492 142.21 76.0292C142.553 75.5732 142.828 75.1385 143.032 74.7532C144.14 72.6545 144.352 65.4359 141.381 63.8092C139.3 62.6706 137.827 64.3972 137.132 65.5346V65.5386C136.835 66.0226 136.68 66.3999 136.68 66.3999L133.812 80.8625Z" fill="#F9AA7F"/>
<path d="M133.812 80.8625C137.809 80.4799 140.683 78.0492 142.21 76.0292C142.341 75.8239 142.456 75.6279 142.553 75.4412C143.662 73.3439 143.871 66.1252 140.902 64.4986C139.216 63.5746 137.93 64.5332 137.132 65.5346V65.5386C136.835 66.0226 136.68 66.3999 136.68 66.3999L133.812 80.8625Z" fill="#F68672"/>
<path d="M142.403 69.5227C142.56 70.0973 142.475 70.7 142.297 71.272C141.533 73.7067 139.153 75.5933 136.876 77.3467C137.551 76.16 137.785 74.8307 137.621 73.5427C137.566 73.0947 137.462 72.6493 137.449 72.1987C137.402 70.384 141.476 66.1267 142.403 69.5227Z" fill="#F36269"/>
<path d="M135.729 78.0532L135.859 77.9772C135.942 77.9252 136.075 77.8559 136.227 77.7479C136.532 77.5359 136.954 77.1972 137.348 76.6986C137.74 76.2012 138.094 75.5399 138.253 74.7612C138.395 73.9852 138.349 73.0839 137.92 72.2226L137.747 71.9079L137.7 71.8306L137.695 71.8239H137.692H137.691L137.698 71.8106L137.735 71.7399L137.811 71.6012L137.966 71.3292C138.179 70.9706 138.408 70.6346 138.645 70.3212C138.882 70.0079 139.129 69.7186 139.373 69.4546C139.618 69.1906 139.854 68.9439 140.091 68.7612C140.326 68.5759 140.586 68.4533 140.831 68.4173C141.078 68.3853 141.312 68.4373 141.469 68.5133C141.629 68.5893 141.718 68.6906 141.756 68.7652L141.798 68.8866L141.789 68.7572C141.771 68.6732 141.705 68.5466 141.546 68.4319C141.386 68.3212 141.14 68.2173 140.814 68.2133C140.488 68.2159 140.14 68.3319 139.829 68.5146C139.517 68.6973 139.236 68.9253 138.941 69.1746C138.65 69.4266 138.353 69.7092 138.07 70.0239C137.785 70.3386 137.513 70.6839 137.267 71.0572L137.086 71.3426L136.999 71.4892L136.884 71.6959L136.806 71.8412L136.888 71.9839L137.009 72.1866L137.158 72.4612C137.53 73.2079 137.622 73.9946 137.566 74.7026C137.494 75.4119 137.268 76.0453 136.988 76.5479C136.705 77.0533 136.381 77.4306 136.135 77.6799C136.014 77.8052 135.903 77.8919 135.835 77.9572L135.729 78.0532Z" fill="#D03B58"/>
<path d="M95.3877 62.584C95.3877 62.584 99.771 57.3693 101.909 59.6626C104.048 61.9586 103.014 62.1253 103.014 62.1253L95.3877 62.584Z" fill="#353638"/>
<path d="M127.333 62.1733C127.333 62.1733 118.939 54.3533 116.213 57.7493C114.621 59.732 115.992 60.816 115.992 60.816L127.333 62.1733Z" fill="#353638"/>
<path d="M109.967 78.0959C110.614 77.8466 111.257 77.4786 111.95 77.5372C111.289 79.1279 109.98 80.4346 108.394 81.0919C108.272 81.1426 108.145 81.1905 108.013 81.1879C107.85 81.1852 107.7 81.1079 107.558 81.0279C106.665 80.5226 105.875 79.8386 105.243 79.0279C105.116 78.8626 104.992 78.6879 104.94 78.4866C104.773 77.8172 105.235 77.9572 105.635 78.1079C106.1 78.2826 106.587 78.3972 107.08 78.4532C108.051 78.5652 109.052 78.4479 109.967 78.0959Z" fill="#F36269"/>
<path d="M108.247 80.7092C107.831 80.3506 107.37 80.0479 106.943 79.6972C106.421 79.2652 105.932 78.7932 105.5 78.2666C107.653 76.7266 107.592 74.4479 107.444 71.8666C107.378 70.7012 107.035 69.5573 106.453 68.5466C106.149 68.0159 105.778 67.5226 105.354 67.0826C105.139 66.8586 104.909 66.6479 104.667 66.4519C104.432 66.2612 104.19 66.1559 103.907 66.0453C104.044 66.1973 104.138 66.3732 104.262 66.5292C104.585 66.9372 104.922 67.3159 105.203 67.7586C105.483 68.1999 105.724 68.6666 105.926 69.1506C106.327 70.1159 106.573 71.1519 106.626 72.1986C106.679 73.2252 106.546 74.2652 106.186 75.2306C105.777 76.3306 105.038 77.4293 104.055 78.0839C104.047 78.0906 105.571 79.7972 105.718 79.9359C106.102 80.2946 106.519 80.6186 106.967 80.8919C107.406 81.1612 107.912 81.4813 108.442 81.4506C108.608 81.4413 108.778 81.4012 108.912 81.3012L108.653 81.0999L108.552 80.9986L108.247 80.7092Z" fill="#F14568"/>
<path d="M108.043 85.1787C108.043 85.1787 114.842 80.128 122.433 82.756C122.433 82.756 120.175 89.3534 116.431 89.8814C111.887 90.5227 108.043 85.1787 108.043 85.1787Z" fill="#F14568"/>
<path d="M108.492 85.2893C108.492 85.2893 113.362 82.968 122.02 82.94C122.02 82.94 120.813 88.12 115.865 88.7213C110.918 89.3227 108.492 85.2893 108.492 85.2893Z" fill="#FDE9E0"/>
<path d="M101.789 79.1466C101.456 80.0866 99.4495 80.2279 97.3036 79.4626C95.1605 78.6973 93.6922 77.3146 94.0257 76.376C94.3593 75.436 96.3656 75.2946 98.5114 76.0599C100.655 76.8239 102.123 78.2066 101.789 79.1466Z" fill="#F36269"/>
<path d="M128.525 74.3441C128.912 75.7468 126.631 77.6041 123.431 78.4921C120.231 79.3814 117.324 78.9654 116.937 77.5627C116.551 76.1601 118.832 74.3028 122.031 73.4148C125.231 72.5254 128.138 72.9414 128.525 74.3441Z" fill="#F36269"/>
<path d="M95.575 60.1119C96.8226 54.1146 101.302 48.9879 107.155 47.2426C110.653 46.1999 114.622 46.2319 117.78 44.3972C119.315 50.4519 124.583 56.6012 130.808 56.6012L134.696 68.2466C134.696 68.2466 138.581 63.2452 141.381 63.8092L139.681 45.6479L129.409 34.7253H107.01L98.55 40.4986L91.6221 49.3919L92.7355 56.8946C93.1129 58.1306 94.6449 59.2159 95.575 60.1119Z" fill="#121414"/>
<path d="M88.2589 57.7293C91.8531 50.8146 98.2468 45.3466 105.698 43.0746C110.923 41.4759 117.48 41.2146 120.092 36.4079C121.846 41.6519 124.159 45.0346 128.539 48.5293C132.357 51.5626 136.786 53.8346 141.488 55.1212C143.467 55.6572 145.643 56.1066 146.937 57.7053C148.12 59.1399 148.255 61.1759 147.981 63.0106C147.696 64.8453 147.049 66.6052 146.826 68.4532C146.415 71.8732 147.497 75.2946 148.691 78.5266C149.874 81.7599 151.204 85.0306 151.329 88.4759C151.379 90.0493 151.116 91.6853 150.533 93.1453C150.832 92.9706 151.129 92.7826 151.428 92.5959C154.226 90.8239 157.001 88.4386 157.623 85.1679C158.457 80.9119 155.471 77.1293 153.667 73.0973C153.381 72.4853 153.133 71.8733 152.934 71.2493C150.308 63.2226 155.21 54.3093 153.182 46.1079C151.689 40.0533 146.141 35.2346 139.957 34.6106C135.542 28.0319 126.91 24.2866 119.009 24.6746C111.097 25.0613 103.633 28.8066 97.5997 33.9493C93.3957 37.5453 89.6634 42.0759 88.2948 47.3933C88.146 47.9559 88.0211 48.5173 87.9347 49.0919C87.4737 51.9746 87.7354 54.8466 88.2589 57.7293Z" fill="#353638"/>
<path d="M88.2949 47.3934C89.5399 45.7707 91.0945 44.3734 92.786 43.2734C97.3634 40.3028 102.826 39.1174 108.089 37.6321C113.337 36.1468 118.724 34.1868 122.405 30.1414C126.946 37.6934 134.796 43.1614 143.441 44.8227C141.762 45.1214 140.082 45.4348 138.416 45.7334C140.99 50.3894 148.878 50.1281 150.856 55.0587C151.988 57.8801 150.545 61.0254 150.394 64.0721C150.234 67.3548 151.614 70.4627 153.667 73.0974C153.381 72.4854 153.133 71.8734 152.934 71.2494C150.308 63.2228 155.21 54.3094 153.182 46.1081C151.689 40.0534 146.141 35.2348 139.958 34.6108C135.542 28.0321 126.91 24.2868 119.009 24.6748C111.097 25.0614 103.633 28.8068 97.5999 33.9494C93.3958 37.5454 89.6635 42.0761 88.2949 47.3934Z" fill="#4A4C4E"/>
<path d="M177.252 29.8547L203.139 10.6428L188.692 9.34601e-05L177.252 29.8547Z" fill="#CCC8E9"/>
<path d="M177.703 40.3413L196.976 46.512L197.672 35.3546L177.703 40.3413Z" fill="#CCC8E9"/>
<path d="M163.625 26.1599L167.666 4.99593L157.492 4.00394L163.625 26.1599Z" fill="#CCC8E9"/>
<path d="M202.761 195.041L203.866 191.541L204.972 195.041C206.177 198.857 208.803 202.061 212.304 203.983C208.803 205.905 206.177 209.106 204.972 212.924L203.866 216.424L202.761 212.924C201.554 209.106 198.929 205.905 195.428 203.983C198.929 202.061 201.554 198.857 202.761 195.041Z" fill="#F8A043"/>
<path d="M57.8488 238.423L58.7244 235.649L59.6 238.423C60.5553 241.448 62.6374 243.985 65.4117 245.509C62.6374 247.031 60.5553 249.569 59.6 252.593L58.7244 255.367L57.8488 252.593C56.8934 249.569 54.8114 247.031 52.0371 245.509C54.8114 243.985 56.8934 241.448 57.8488 238.423Z" fill="#F8A043"/>
<path d="M200.596 131.352L201.299 129.124L202.002 131.352C202.769 133.783 204.442 135.821 206.67 137.044C204.442 138.267 202.769 140.305 202.002 142.735L201.299 144.963L200.596 142.735C199.83 140.305 198.157 138.267 195.929 137.044C198.157 135.821 199.83 133.783 200.596 131.352Z" fill="#F8A043"/>
</svg>
