<svg width="17" height="16" viewBox="0 0 17 16" fill="none" xmlns="http://www.w3.org/2000/svg">
<path d="M11.6549 3.47953V0.781917C11.6549 0.351863 11.3044 0 10.8757 0H1.26553C0.83697 0 0.486328 0.351863 0.486328 0.781917V1.29016V11.4812V11.8331C0.486328 12.1197 0.655155 12.3934 0.901903 12.5237L6.82385 15.5994C7.08358 15.7297 7.39526 15.5474 7.39526 15.2475V12.2502H10.8757C11.3044 12.2502 11.6549 11.8984 11.6549 11.4683V7.19377H10.0965V10.2954C10.0965 10.5169 9.92767 10.6863 9.7069 10.6863H7.40825V6.67249V4.13126V4.05307C7.40825 3.76637 7.23942 3.49269 6.99267 3.36237L3.49925 1.56397H9.7069C9.92767 1.56397 10.0965 1.73338 10.0965 1.95492V3.49269H11.6549V3.47953Z" fill="#E51515"/>
<path d="M13.6547 2.20236L16.1871 4.74361C16.5117 5.06941 16.5117 5.5516 16.1871 5.8774L13.6547 8.41865C13.33 8.74445 12.8364 8.75761 12.5117 8.43181C12.2001 8.11917 12.239 7.59776 12.5378 7.28499L13.6805 6.1512H9.25217C9.03153 6.1512 8.81063 6.05998 8.66777 5.89056C8.30415 5.4996 8.39505 4.8089 8.86257 4.54826C8.97945 4.4831 9.12231 4.444 9.25217 4.444H13.6806C13.6806 4.444 12.5509 3.31021 12.5379 3.31021C12.2391 3.01048 12.2001 2.47616 12.5118 2.17643C12.8235 1.86366 13.33 1.87656 13.6547 2.20236Z" fill="#E51515"/>
</svg>
